<?xml version="1.0"?>
<svg xmlns="http://www.w3.org/2000/svg" xmlns:xlink="http://www.w3.org/1999/xlink" version="1.1" viewBox="0 0 192 192" width="50px" height="50px"><g fill="none" fill-rule="nonzero" stroke="none" stroke-width="1" stroke-linecap="butt" stroke-linejoin="miter" stroke-miterlimit="10" stroke-dasharray="" stroke-dashoffset="0" font-family="none" font-weight="none" font-size="none" text-anchor="none" style="mix-blend-mode: normal"><path d="M0,192v-192h192v192z" fill="none"/><g fill="#ffffff"><g id="surface1"><path d="M126.72,111.36c-6.9,0 -11.52,5.82 -11.52,15.36c0,9.54 3.42,19.38 11.52,19.2c8.52,-0.195 11.595,-8.535 11.52,-19.2c-0.06,-9.54 -4.635,-15.36 -11.52,-15.36zM169.965,65.535c1.05,-5.16 1.5,-23.43 -6.075,-42.495c0,0 -17.4,1.905 -43.71,19.965c-5.505,-1.53 -14.85,-2.295 -24.18,-2.295c-9.33,0 -18.66,0.765 -24.195,2.28c-26.295,-18.045 -43.68,-19.95 -43.68,-19.95c-7.59,19.065 -7.215,36.9 -6.09,42.495c-8.91,9.675 -14.355,21.285 -14.355,37.155c0,68.985 57.24,70.095 71.685,70.095c3.27,0 9.765,0 16.635,0.015c6.87,-0.015 13.38,-0.015 16.635,-0.015c14.445,0 71.685,-1.11 71.685,-70.095c0,-15.87 -5.445,-27.48 -14.355,-37.155zM96.54,165.12h-0.54c-36.21,0 -64.68,-5.145 -64.68,-40.335c0,-8.43 2.985,-16.245 10.05,-22.74c11.79,-10.83 31.725,-5.1 54.36,-5.1c0.09,0 0.465,0 0.54,0c22.635,0 42.585,-5.715 54.375,5.1c7.065,6.495 10.035,14.31 10.035,22.74c0,35.19 -27.93,40.335 -64.14,40.335zM65.28,111.36c-6.885,0 -11.52,7.74 -11.52,17.28c0,9.54 4.635,17.28 11.52,17.28c6.9,0 11.52,-7.74 11.52,-17.28c0,-9.54 -4.62,-17.28 -11.52,-17.28z"/></g></g></g></svg>
