<?xml version="1.0"?>
<svg xmlns="http://www.w3.org/2000/svg" xmlns:xlink="http://www.w3.org/1999/xlink" version="1.1" viewBox="0 0 192 192" width="50px" height="50px"><g fill="none" fill-rule="nonzero" stroke="none" stroke-width="1" stroke-linecap="butt" stroke-linejoin="miter" stroke-miterlimit="10" stroke-dasharray="" stroke-dashoffset="0" font-family="none" font-weight="none" font-size="none" text-anchor="none" style="mix-blend-mode: normal"><path d="M0,192v-192h192v192z" fill="none"/><g fill="#ffffff"><path d="M61.44,11.52c-27.5328,0 -49.92,22.3872 -49.92,49.92v69.12c0,27.5328 22.3872,49.92 49.92,49.92h69.12c27.5328,0 49.92,-22.3872 49.92,-49.92v-69.12c0,-27.5328 -22.3872,-49.92 -49.92,-49.92zM142.08,42.24c4.224,0 7.68,3.456 7.68,7.68c0,4.224 -3.456,7.68 -7.68,7.68c-4.224,0 -7.68,-3.456 -7.68,-7.68c0,-4.224 3.456,-7.68 7.68,-7.68zM96,53.76c23.3088,0 42.24,18.9312 42.24,42.24c0,23.3088 -18.9312,42.24 -42.24,42.24c-23.3088,0 -42.24,-18.9312 -42.24,-42.24c0,-23.3088 18.9312,-42.24 42.24,-42.24zM96,61.44c-19.0464,0 -34.56,15.5136 -34.56,34.56c0,19.0464 15.5136,34.56 34.56,34.56c19.0464,0 34.56,-15.5136 34.56,-34.56c0,-19.0464 -15.5136,-34.56 -34.56,-34.56z"/></g></g></svg>
