<svg xmlns="http://www.w3.org/2000/svg" xmlns:xlink="http://www.w3.org/1999/xlink" width="50" height="50" version="1.1" viewBox="0 0 192 192"><g fill="none" fill-rule="nonzero" stroke="none" stroke-dashoffset="0" stroke-linecap="butt" stroke-linejoin="miter" stroke-miterlimit="10" stroke-width="1" font-family="none" font-size="none" font-weight="none" text-anchor="none" style="mix-blend-mode:normal"><path fill="none" d="M0,192v-192h192v192z"/><g fill="#fff"><g id="surface1"><path d="M172.41,55.68c-1.53,-8.445 -8.82,-14.595 -17.28,-16.515c-12.66,-2.685 -36.09,-4.605 -61.44,-4.605c-25.335,0 -49.14,1.92 -61.815,4.605c-8.445,1.92 -15.75,7.68 -17.28,16.515c-1.545,9.6 -3.075,23.04 -3.075,40.32c0,17.28 1.53,30.72 3.45,40.32c1.545,8.445 8.835,14.595 17.28,16.515c13.44,2.685 36.48,4.605 61.83,4.605c25.35,0 48.39,-1.92 61.83,-4.605c8.445,-1.92 15.735,-7.68 17.28,-16.515c1.53,-9.6 3.45,-23.43 3.84,-40.32c-0.78,-17.28 -2.7,-30.72 -4.62,-40.32zM72.96,122.88v-53.76l46.845,26.88z"/></g></g></g></svg>