<?xml version="1.0"?>
<svg xmlns="http://www.w3.org/2000/svg" xmlns:xlink="http://www.w3.org/1999/xlink" version="1.1" viewBox="0 0 192 192" width="32px" height="32px"><g fill="none" fill-rule="nonzero" stroke="none" stroke-width="1" stroke-linecap="butt" stroke-linejoin="miter" stroke-miterlimit="10" stroke-dasharray="" stroke-dashoffset="0" font-family="none" font-weight="none" font-size="none" text-anchor="none" style="mix-blend-mode: normal"><path d="M0,192v-192h192v192z" fill="none"/><g fill="#ffffff"><g id="surface1"><path d="M96,36c-22.59375,0 -42.5625,2.34375 -54.75,4.125c-10.07812,1.47656 -18.21094,9.07031 -20.0625,19.125c-1.57031,8.55469 -3.1875,21.07031 -3.1875,36.75c0,15.67969 1.61719,28.19531 3.1875,36.75c1.85156,10.05469 9.98438,17.67188 20.0625,19.125c12.23438,1.78125 32.27344,4.125 54.75,4.125c22.47656,0 42.51563,-2.34375 54.75,-4.125c10.07813,-1.45312 18.21094,-9.07031 20.0625,-19.125c1.57031,-8.57812 3.1875,-21.11719 3.1875,-36.75c0,-15.63281 -1.59375,-28.17187 -3.1875,-36.75c-1.85156,-10.05469 -9.98437,-17.64844 -20.0625,-19.125c-12.1875,-1.78125 -32.15625,-4.125 -54.75,-4.125zM96,48c21.79688,0 41.27344,2.22656 53.0625,3.9375c5.0625,0.75 9.02344,4.57031 9.9375,9.5625c1.45313,7.92188 3,19.66406 3,34.5c0,14.8125 -1.54687,26.57813 -3,34.5c-0.91406,4.99219 -4.85156,8.83594 -9.9375,9.5625c-11.83594,1.71094 -31.40625,3.9375 -53.0625,3.9375c-21.65625,0 -41.25,-2.22656 -53.0625,-3.9375c-5.0625,-0.72656 -9.02344,-4.57031 -9.9375,-9.5625c-1.45312,-7.92187 -3,-19.64062 -3,-34.5c0,-14.88281 1.54688,-26.57812 3,-34.5c0.91406,-4.99219 4.85156,-8.8125 9.9375,-9.5625c11.76563,-1.71094 31.26563,-3.9375 53.0625,-3.9375zM78,61.6875v68.625l9,-5.0625l42,-24l9,-5.25l-9,-5.25l-42,-24zM90,82.3125l23.8125,13.6875l-23.8125,13.6875z"/></g></g></g></svg>
